<?xml version="1.0" encoding="iso-8859-1"?>
<!-- Uploaded to: SVG Repo, www.svgrepo.com, Generator: SVG Repo Mixer Tools -->
<!DOCTYPE svg PUBLIC "-//W3C//DTD SVG 1.1//EN" "http://www.w3.org/Graphics/SVG/1.1/DTD/svg11.dtd">
<svg fill="#000000" height="800px" width="800px" version="1.1" id="Capa_1" xmlns="http://www.w3.org/2000/svg" xmlns:xlink="http://www.w3.org/1999/xlink" 
	 viewBox="0 0 307.429 307.429" xml:space="preserve">
<g>
	<path d="M248.286,119.439l59.143-54.846l-14.858-14.592l-56.893,63.609c-4.115-1.638-8.516-3.176-13.185-4.6l48.447-66.076
		L253.569,31.45l-43.979,74.077c-21.212-5.055-46.47-7.988-73.582-7.988c-0.222,0-0.44,0.002-0.662,0.002
		c0.316,1.271,0.576,2.555,0.775,3.856c1.075,7.025,0.296,14.169-2.246,20.833c0.71-0.004,1.42-0.008,2.133-0.008
		c22.362,0,43.095,2.189,60.155,5.922l-35.261,59.393c-7.983,0.607-16.317,0.932-24.895,0.932
		c-58.221,0-105.418-14.83-105.418-33.125c0-16.203,37.04-29.689,85.97-32.557c1.504-6.117,1.785-13.176-1.225-20.038
		c-0.69-1.573-1.516-3.061-2.435-4.484C48.793,102.321,0,122.962,0,147.82v63.09c0,0,14.101,81.676,136.009,81.676
		c121.908,0,136.009-81.676,136.009-81.676v-63.09C272.018,137.289,263.255,127.515,248.286,119.439z M165.178,187.183
		l41.387-56.447c3.819,1.082,7.388,2.25,10.67,3.496l-46.902,52.439C168.633,186.855,166.915,187.025,165.178,187.183z
		 M176.592,185.923l50.794-47.104c8.929,4.863,14.038,10.506,14.038,16.523C241.424,169.119,214.664,180.927,176.592,185.923z"/>
	<path d="M103.644,81.275c6.556,5.473,12.772,11.494,16.271,19.465c5.375,12.25,2.166,26.09-4.195,37.32
		c2.038,0,5.865-5.162,7.016-6.559c2.168-2.635,4.011-5.537,5.449-8.631c3.002-6.459,4.075-13.668,2.996-20.717
		c-1.73-11.311-8.497-20.301-16.574-27.928c-6.466-6.105-13.84-10.881-18.566-18.691c-7.631-12.611-5.1-27.012,2.539-38.986
		c-1.724,0-5.035,3.891-6.09,4.982c-2.402,2.49-4.476,5.316-6.077,8.385c-3.289,6.305-4.555,13.537-3.42,20.57
		C85.087,63.468,93.925,73.158,103.644,81.275z"/>
	<path d="M130.184,41.257c2.675,2.234,5.214,4.691,6.641,7.945c2.193,5,0.884,10.648-1.713,15.23c0.832,0,2.395-2.105,2.863-2.676
		c0.885-1.076,1.637-2.26,2.225-3.524c1.225-2.635,1.663-5.578,1.223-8.455c-0.707-4.615-3.468-8.285-6.765-11.396
		c-2.638-2.492-5.648-4.441-7.577-7.629c-3.114-5.146-2.081-11.024,1.037-15.91c-0.704,0-2.056,1.588-2.486,2.033
		c-0.98,1.016-1.826,2.17-2.48,3.422c-1.342,2.572-1.858,5.523-1.395,8.394C122.61,33.992,126.217,37.947,130.184,41.257z"/>
</g>
</svg>