<?xml version="1.0" encoding="iso-8859-1"?>
<!-- Uploaded to: SVG Repo, www.svgrepo.com, Generator: SVG Repo Mixer Tools -->
<svg fill="#000000" height="800px" width="800px" version="1.1" id="Layer_1" xmlns="http://www.w3.org/2000/svg" xmlns:xlink="http://www.w3.org/1999/xlink" 
	 viewBox="0 0 512 512" xml:space="preserve">
<g>
	<g>
		<path d="M503.342,352.705c4.783,0,8.658-3.877,8.658-8.658V98.504c0-4.782-3.875-8.658-8.658-8.658h-23.673V59.707
			c0-4.782-3.875-8.658-8.658-8.658H301.268c-18.956,0-35.647,9.844-45.265,24.68c-9.62-14.836-26.313-24.68-45.274-24.68H100.159
			c-4.783,0-8.658,3.876-8.658,8.658s3.875,8.658,8.658,8.658h110.569c20.19,0,36.618,16.426,36.618,36.618v217.5
			c-9.625-8.918-22.492-14.383-36.618-14.383H49.643V68.365h21.657c4.783,0,8.658-3.876,8.658-8.658s-3.875-8.658-8.658-8.658
			H40.985c-4.783,0-8.658,3.876-8.658,8.658v30.139H8.658C3.875,89.846,0,93.722,0,98.504V400.83c0,4.781,3.875,8.658,8.658,8.658
			h212.133v4.768c0,4.782,3.875,8.658,8.658,8.658h53.102c4.783,0,8.658-3.876,8.658-8.658v-4.768h22.667v42.805
			c0,3.015,1.568,5.812,4.141,7.386c2.571,1.573,5.775,1.696,8.461,0.322l33.284-17.029l33.284,17.029
			c1.241,0.635,2.593,0.95,3.943,0.95c1.569,0,3.135-0.426,4.517-1.272c2.573-1.573,4.141-4.371,4.141-7.386v-42.805h97.696
			c4.783,0,8.658-3.876,8.658-8.658v-27.923c0-4.781-3.875-8.658-8.658-8.658c-4.783,0-8.658,3.876-8.658,8.658v19.265h-89.038
			v-21.48h65.365c4.783,0,8.658-3.876,8.658-8.658V107.162h15.015v236.885C494.684,348.829,498.559,352.705,503.342,352.705z
			 M49.643,325.415h161.085c17.208,0,31.673,11.935,35.574,27.96H49.643V325.415z M313.876,392.171h-31.325
			c-4.783,0-8.658,3.876-8.658,8.658v4.768h-35.786v-4.768c0-4.782-3.875-8.658-8.658-8.658H17.316V107.162h15.011v254.871
			c0,4.782,3.875,8.658,8.658,8.658h272.891V392.171z M388.33,400.807L388.33,400.807c0,0.007-0.001,0.015-0.001,0.022
			c0,0.007,0.001,0.015,0.001,0.022v37.286l-24.626-12.599c-1.237-0.634-2.59-0.95-3.943-0.95s-2.706,0.316-3.943,0.95
			l-24.626,12.599V370.69h57.138V400.807z M462.353,353.375H265.704c3.9-16.025,18.36-27.96,35.564-27.96h161.085V353.375z
			 M462.353,308.099H301.268c-14.117,0-26.984,5.455-36.606,14.367V104.982c0-20.192,16.42-36.618,36.606-36.618h161.085V308.099z"
			/>
	</g>
</g>
<g>
	<g>
		<path d="M215.756,229.504H99.745V127.345c0-4.782-3.875-8.658-8.658-8.658c-4.783,0-8.658,3.876-8.658,8.658v102.159h-8.657
			c-4.783,0-8.658,3.876-8.658,8.658c0,4.782,3.875,8.658,8.658,8.658h8.657v10.388c0,4.781,3.875,8.658,8.658,8.658
			c4.783,0,8.658-3.876,8.658-8.658V246.82h116.012c4.783,0,8.658-3.876,8.658-8.658
			C224.414,233.38,220.539,229.504,215.756,229.504z"/>
	</g>
</g>
<g>
	<g>
		<path d="M214.025,153.317c-4.783,0-8.658,3.876-8.658,8.658c0,20.05-16.312,36.361-36.361,36.361s-36.361-16.312-36.361-36.361
			c0-4.782-3.875-8.658-8.658-8.658c-4.783,0-8.658,3.876-8.658,8.658c0,29.598,24.08,53.677,53.677,53.677
			s53.677-24.08,53.677-53.677C222.683,157.193,218.807,153.317,214.025,153.317z"/>
	</g>
</g>
<g>
	<g>
		<path d="M420.075,101.948h-24.389c-4.783,0-8.658,3.877-8.658,8.658c0,4.782,3.875,8.658,8.658,8.658h24.389
			c4.783,0,8.658-3.876,8.658-8.658C428.733,105.825,424.858,101.948,420.075,101.948z"/>
	</g>
</g>
<g>
	<g>
		<path d="M366.826,101.948h-48.91c-4.783,0-8.658,3.877-8.658,8.658c0,4.782,3.875,8.658,8.658,8.658h48.91
			c4.783,0,8.658-3.876,8.658-8.658C375.484,105.825,371.609,101.948,366.826,101.948z"/>
	</g>
</g>
<g>
	<g>
		<path d="M420.075,256.053H317.916c-4.783,0-8.658,3.876-8.658,8.658c0,4.781,3.875,8.658,8.658,8.658h102.159
			c4.783,0,8.658-3.877,8.658-8.658C428.733,259.929,424.858,256.053,420.075,256.053z"/>
	</g>
</g>
<g>
	<g>
		<path d="M420.075,217.527h-64.216c-4.783,0-8.658,3.876-8.658,8.658c0,4.781,3.875,8.658,8.658,8.658h64.216
			c4.783,0,8.658-3.877,8.658-8.658C428.733,221.404,424.857,217.527,420.075,217.527z"/>
	</g>
</g>
<g>
	<g>
		<path d="M326.999,217.527h-9.083c-4.783,0-8.658,3.876-8.658,8.658c0,4.781,3.875,8.658,8.658,8.658h9.083
			c4.783,0,8.658-3.877,8.658-8.658C335.657,221.404,331.782,217.527,326.999,217.527z"/>
	</g>
</g>
<g>
	<g>
		<path d="M420.075,140.475H317.916c-4.783,0-8.658,3.877-8.658,8.658c0,4.782,3.875,8.658,8.658,8.658h102.159
			c4.783,0,8.658-3.876,8.658-8.658C428.733,144.352,424.858,140.475,420.075,140.475z"/>
	</g>
</g>
<g>
	<g>
		<path d="M420.075,179.001H317.916c-4.783,0-8.658,3.876-8.658,8.658c0,4.782,3.875,8.658,8.658,8.658h102.159
			c4.783,0,8.658-3.876,8.658-8.658C428.733,182.878,424.858,179.001,420.075,179.001z"/>
	</g>
</g>
</svg>