<?xml version="1.0" encoding="iso-8859-1"?>
<!-- Uploaded to: SVG Repo, www.svgrepo.com, Generator: SVG Repo Mixer Tools -->
<!DOCTYPE svg PUBLIC "-//W3C//DTD SVG 1.1//EN" "http://www.w3.org/Graphics/SVG/1.1/DTD/svg11.dtd">
<svg fill="#000000" version="1.1" id="Capa_1" xmlns="http://www.w3.org/2000/svg" xmlns:xlink="http://www.w3.org/1999/xlink" 
	 width="800px" height="800px" viewBox="0 0 31.598 31.598"
	 xml:space="preserve">
<g>
	<g>
		<path d="M20.808,19.302c4.438-3.492,4.438-3.492,2.645-6.795c-1.794-3.303-8.494-4.435-1.135-9.815
			C16.75-0.801,11.049,2.853,11.71,3.891c0.755,2.927-3.617,7.283-3.617,7.283s0.577,5.334,0.446,5.893s-1.417,6.106-2.171,8.562
			C5.614,28.08,9.2,27.893,9.483,29.402c0.283,1.509,8.494,1.226,8.307-0.475c0.094-3.113,6.087-7.854,6.795-7.833
			s-1.847,4.119-1.847,4.119l8.547,0.033V14.583C31.284,14.583,25.338,22.038,20.808,19.302z"/>
		<path d="M20.27,7.84c1.606,0.806,4.064,3.922,5.182,5.985c1.114,2.063-1.083,3.583-2.713,5.024
			c3.36,1.159,9.449-5.927,8.813-9.113c-0.543-3.75-7.938-6.798-8.554-6.314C22.382,3.906,19.575,5.763,20.27,7.84z"/>
		<path d="M7.989,9.944c0,0,3.25-3.979,2.781-6.042C4.612-0.628-6.278,16.801,4.693,15.861C2.641,11.491,7.989,9.944,7.989,9.944z"
			/>
	</g>
</g>
</svg>