<?xml version="1.0" encoding="iso-8859-1"?>
<!-- Uploaded to: SVG Repo, www.svgrepo.com, Generator: SVG Repo Mixer Tools -->
<!DOCTYPE svg PUBLIC "-//W3C//DTD SVG 1.1//EN" "http://www.w3.org/Graphics/SVG/1.1/DTD/svg11.dtd">
<svg fill="#000000" version="1.1" id="Capa_1" xmlns="http://www.w3.org/2000/svg" xmlns:xlink="http://www.w3.org/1999/xlink" 
	 width="800px" height="800px" viewBox="0 0 122.961 122.961"
	 xml:space="preserve">
<g>
	<g>
		<polygon points="12.552,74.074 2.373,74.074 2.373,111.754 27.063,111.754 27.063,103.532 12.552,103.532 		"/>
		<path d="M43.753,73.482c-5.98,0-10.539,1.653-13.674,4.961c-3.137,3.308-4.703,8.097-4.703,14.367
			c0,6.341,1.576,11.169,4.729,14.485c3.154,3.314,7.686,4.974,13.597,4.974c5.996,0,10.548-1.649,13.659-4.947
			c3.109-3.3,4.663-8.118,4.663-14.459c0-6.356-1.544-11.177-4.637-14.46C54.294,75.122,49.75,73.482,43.753,73.482z
			 M49.434,101.136c-1.246,1.77-3.155,2.651-5.732,2.651c-5.069,0-7.604-3.642-7.604-10.926c0-7.354,2.551-11.031,7.656-11.031
			c2.507,0,4.393,0.898,5.655,2.693c1.262,1.795,1.896,4.575,1.896,8.338C51.304,96.608,50.681,99.366,49.434,101.136z"/>
		<path d="M79.636,93.275c-0.274,1.031-0.593,2.448-0.954,4.253c-0.359,1.805-0.602,3.309-0.723,4.51
			c-0.104-1.666-0.688-4.621-1.752-8.865l-5.128-19.099H59.635l12.293,37.681h11.985l12.346-37.681h-11.39L79.636,93.275z"/>
		<polygon points="98.219,111.754 120.588,111.754 120.588,103.456 108.398,103.456 108.398,96.34 119.689,96.34 119.689,88.17 
			108.398,88.17 108.398,82.245 120.588,82.245 120.588,74.074 98.219,74.074 		"/>
		<circle cx="71.887" cy="21.1" r="10.406"/>
		<path d="M118.566,61.715l-2.703-0.008c-8.273-10.98-12.041-13.001-14.041-13.371c0.705-0.823,1.089-1.918,0.955-3.08
			c-0.252-2.216-2.256-3.811-4.471-3.557c-12.584,1.437-14.277,0.003-18.752-5.707c-0.045-0.055-0.1-0.099-0.146-0.15
			c-1.639-2.604-4.854-3.933-7.672-4.065c0,0-1.137-0.111-2.277,0.139c-1.088,0.239-2.256,0.731-2.256,0.731l-0.031,0.012
			c-3.271,1.514-6.381,5.029-5.558,9.229l4.419,22.542c1.537,6.729,10.523,5.961,11.33,5.987l41.181,0.11c0.003,0,0.007,0,0.011,0
			c2.428,0,4.401-1.966,4.406-4.393C122.969,63.702,121.001,61.723,118.566,61.715z M83.885,56.227l-1.441-7.355
			c2.391,0.983,5.111,1.418,8.555,1.418c1.245,0,2.593-0.058,4.046-0.163C92.6,51.286,89.062,53.17,83.885,56.227z M100.066,61.667
			l-2.33-3.07c1.045-0.542,1.927-0.967,2.588-1.245c0.975,0.803,2.478,2.373,4.17,4.327L100.066,61.667z"/>
		<circle cx="51.074" cy="21.098" r="10.406"/>
		<path d="M4.419,70.529l41.179-0.11c0.137,0.033,10.496,0.303,11.33-5.988l4.419-22.541c0.823-4.199-2.286-7.715-5.558-9.229
			l-0.028-0.012c0,0-1.171-0.492-2.259-0.731c-1.14-0.25-2.278-0.139-2.278-0.139c-2.817,0.133-6.028,1.461-7.668,4.063
			c-0.047,0.054-0.104,0.097-0.148,0.153c-4.476,5.71-6.163,7.143-18.752,5.707c-2.205-0.254-4.218,1.341-4.471,3.556
			c-0.131,1.163,0.251,2.257,0.957,3.08c-1.999,0.369-5.77,2.391-14.044,13.373l-2.703,0.006C1.961,61.724-0.007,63.702,0,66.136
			c0.007,2.428,1.979,4.394,4.406,4.394C4.412,70.529,4.415,70.529,4.419,70.529z M31.964,50.29c3.442,0,6.163-0.435,8.554-1.418
			l-1.441,7.355c-5.177-3.057-8.714-4.941-11.159-6.101C29.372,50.232,30.718,50.29,31.964,50.29z M22.638,57.349
			c1.642,0.692,4.63,2.29,8.154,4.294l-12.325,0.034C20.159,59.723,21.663,58.153,22.638,57.349z"/>
	</g>
</g>
</svg>