<?xml version="1.0" encoding="iso-8859-1"?>
<!-- Uploaded to: SVG Repo, www.svgrepo.com, Generator: SVG Repo Mixer Tools -->
<!DOCTYPE svg PUBLIC "-//W3C//DTD SVG 1.1//EN" "http://www.w3.org/Graphics/SVG/1.1/DTD/svg11.dtd">
<svg fill="#000000" version="1.1" id="Capa_1" xmlns="http://www.w3.org/2000/svg" xmlns:xlink="http://www.w3.org/1999/xlink" 
	 width="800px" height="800px" viewBox="0 0 191.734 191.734"
	 xml:space="preserve">
<g>
	<path d="M191.645,161.725c-5.091-27.669-10.814-61.019-31.127-82.081c-1.772-1.837-4.853-1.331-6.132,0.79
		c-11.964,19.815-17.939,42.027-26.315,63.407c-5.915-14.112-14.962-27.965-25.774-34.609c-17.2-10.571-27.192,22.499-31.896,38.324
		c-2.871-9.42-6.043-18.745-9.648-27.916c-3.916-9.965-12.471-34.685-26.659-34.49c-15.415,0.212-20.687,21.845-23.974,33.437
		c-5.549,19.572-8.67,40.211-10.11,60.495c-0.128,1.809,1.154,2.88,2.62,3.143c0.702,0.796,1.766,1.303,3.206,1.237
		c22.992-1.039,46.15-0.301,68.927-4.059c1.868-0.308,2.958-2.161,3.055-3.945c18.128,1.414,37.114,1.497,54.531-4.21
		c0.846-0.276,1.43-0.775,1.855-1.372c0.023,0.021,0.031,0.043,0.056,0.062c12.347,9.892,41.416,1.457,54.669-3.423
		C191.051,165.732,192.055,163.954,191.645,161.725z M7.605,174.604c3.801-21.061,12.471-83.166,26.932-80.748
		c11.878,1.985,19.934,32.955,23.022,41.787c4.147,11.861,7.601,23.985,10.773,36.151C48.197,174.513,27.841,173.287,7.605,174.604z
		 M76.145,167.762c-0.037-0.002-0.06,0.015-0.096,0.014c-1.035-3.987-2.114-7.961-3.241-11.922c0.196-0.165,0.388-0.34,0.538-0.582
		c4.695-7.618,7.604-16.317,11.43-24.394c2.034-4.292,4.091-8.55,7.02-12.321c4.227-5.442,7.888-2.558,11.798,1.398
		c10.51,10.633,20.419,29.642,23.668,45.122C110.682,169.058,93.04,168.729,76.145,167.762z M136.411,164.735
		c-0.639,0.076-1.26,0.384-1.791,0.811c-0.873-5.006-2.376-10.552-4.421-16.219c0.204-0.143,0.392-0.316,0.543-0.542
		c12.344-18.451,17.728-40.079,27.812-59.636c15.125,18.49,20.752,47.764,24.915,70.942
		C167.662,164.713,152.443,162.832,136.411,164.735z"/>
	<path d="M132.646,51.012c-2.042-0.145-3.958,0.747-5.977,1.013c-0.782,0.103-1.562,0.091-2.341,0.075
		c0.034-2.877-0.223-5.807-0.85-8.748c-0.148-0.695-0.363-1.376-0.555-2.061c0.934-0.342,1.866-0.683,2.787-1.065
		c2.397-0.994,5.295-1.873,6.646-4.233c0.884-1.546-0.206-4.097-2.224-3.874c-2.568,0.285-4.318,1.964-6.434,3.334
		c-0.753,0.488-1.536,0.928-2.312,1.378c-1.43-3.354-3.366-6.499-5.705-9.293c1.288-2.303,2.521-4.753,3.236-7.196
		c0.908-3.097-3.228-4.451-4.922-2.075c-1.088,1.527-1.71,3.368-2.265,5.235c-1.448-1.261-2.993-2.404-4.629-3.399
		c-0.846-0.513-1.757-0.97-2.719-1.369c0.191-0.304,0.362-0.615,0.561-0.916c1.347-2.047,3.141-3.885,3.729-6.32
		c0.467-1.926-1.778-4.185-3.65-2.807c-2.601,1.913-4.45,5.278-5.761,8.615c-3.511-0.61-7.223-0.505-10.526,0.504
		c-0.267-0.572-0.499-1.159-0.651-1.765c-0.357-1.423-0.153-3.109-0.584-4.661c-0.567-2.041-2.961-2.453-4.451-1.175
		c-2.194,1.882-2.409,4.572-1.743,7.241c0.312,1.25,0.982,2.331,1.834,3.262c-3.958-1.655-7.456-1.166-10.473,0.637
		c-0.709-0.742-1.454-1.435-2.052-2.081c-0.724-0.78-1.357-1.511-1.898-2.277c-0.358-0.506-0.724-0.924-1.153-1.355
		c-0.252-0.267-0.543-0.473-0.871-0.617c-1.51-0.739-0.581-0.319,0.055,0.192c-1.028-0.826-2.839-1.247-3.808,0
		c-2.259,2.905-0.193,5.565,2.063,7.667c0.806,0.751,1.861,1.751,3.03,2.635c-1.871,2.306-3.46,5.099-4.741,8.044
		c-0.288-0.127-0.595-0.235-0.959-0.271c-3.4-0.334-6.441-1.642-9.135-3.709c-3.12-2.392-7.196,2.925-4.198,5.44
		c3.386,2.841,8.044,3.755,12.414,3.623c-0.515,1.644-0.92,3.253-1.249,4.799c-0.314-0.034-0.655-0.008-1.02,0.099
		c-1.768,0.516-3.503,0.488-5.315,0.217c-2.286-0.342-4.584,0.925-4.584,3.492c0,2.543,2.298,3.867,4.584,3.492
		c1.922-0.315,3.779-0.768,5.515-1.575c-0.193,3.507,0.052,7.022,0.706,10.421c-3.354,1.374-6.467,3.571-5.745,6.821
		c0.336,1.516,1.818,2.43,3.279,2.497c1.726,0.08,3.118-1.32,4.367-2.596c1.262,3.34,2.971,6.446,5.075,9.197
		c-1.088,0.687-2.158,1.4-3.19,2.229c-2.478,1.991-5.125,4.458-4.215,7.928c0.37,1.41,2.022,2.461,3.458,1.963
		c2.573-0.891,3.524-2.681,5.123-4.701c0.863-1.09,1.728-2.189,2.613-3.27c2.203,2.002,4.715,3.648,7.49,4.886
		c-0.342,0.72-0.679,1.445-1.037,2.138c-1.278,2.476-2.723,4.607-1.323,7.352c0.823,1.614,2.821,1.826,4.291,1.125
		c2.344-1.117,2.512-3.65,3.153-5.896c0.267-0.936,0.562-1.876,0.832-2.821c1.708,0.338,3.492,0.533,5.355,0.563
		c0.633,0.01,1.232-0.057,1.852-0.077c0.216,1.998,0.213,3.987,0.098,6.04c-0.063,1.118,0.683,2.486,1.708,2.978
		c1.299,0.622,2.183,0.624,3.481,0c1.02-0.489,1.779-1.861,1.708-2.978c-0.148-2.344-0.451-4.538-0.991-6.704
		c4.102-0.831,7.798-2.395,11.078-4.478c0.843,1.378,1.725,2.734,2.424,4.194c0.561,1.17,2.228,1.799,3.435,1.398
		c0.55-0.183,0.897-0.423,1.342-0.782c0.989-0.798,1.193-2.662,0.477-3.685c-1.052-1.501-2.313-2.841-3.497-4.237
		c2.094-1.863,3.895-4.016,5.461-6.339c2.841,1.68,7.089,4.008,10.21,2.709c1.972-0.822,3.093-3.902,0.664-5.084
		c-1.57-0.764-3.062-0.832-4.745-1.118c-1.209-0.206-2.393-0.563-3.558-0.965c1.664-3.481,2.772-7.275,3.291-11.231
		c3.433,0.659,7.225,0.655,9.898-0.945C136.161,54.355,135.075,51.185,132.646,51.012z M89.58,76.763
		c-14.163,0.793-19.766-14.369-20.194-26.018c-0.397-10.807,3.538-18.932,12.061-23.911c0.497,0.579,1.226,0.965,2.231,0.922
		c6.866-0.293,12.092-3.177,18.754,0.339c5.944,3.137,9.371,9.83,11.181,15.991C118.603,61.07,106.803,75.799,89.58,76.763z"/>
</g>
</svg>