<?xml version="1.0" encoding="iso-8859-1"?>
<!-- Uploaded to: SVG Repo, www.svgrepo.com, Generator: SVG Repo Mixer Tools -->
<!DOCTYPE svg PUBLIC "-//W3C//DTD SVG 1.1//EN" "http://www.w3.org/Graphics/SVG/1.1/DTD/svg11.dtd">
<svg fill="#000000" height="800px" width="800px" version="1.1" id="Capa_1" xmlns="http://www.w3.org/2000/svg" xmlns:xlink="http://www.w3.org/1999/xlink" 
	 viewBox="0 0 520.434 520.434" xml:space="preserve">
<g>
	<path d="M402.744,155.135c28.567,0,51.808-23.242,51.808-51.811c0-28.567-23.24-51.809-51.808-51.809
		c-28.56,0-51.794,23.241-51.794,51.809C350.95,131.893,374.185,155.135,402.744,155.135z"/>
	<path d="M516.185,249.262l-17.793-24.261c-4.026-5.492-10.783-14.309-15.061-19.654l-26.259-32.803
		c-4.184-5.227-8.621-8.225-17.128-8.225c-0.073,0-67.167,0.035-67.785,0.035c-8.083,0-12.16,4.223-15.791,9.566l-36.782,54.121
		c-3.054,4.493-8.989,11.894-12.703,15.837l-3.012,3.2l-4.237-4.501c-3.807-4.044-9.889-11.626-13.016-16.226l-36.784-54.123
		c-3.448-5.075-9.094-8.195-15.227-8.275c-0.563-0.007-64.446,0.003-64.771,0.003c-6.885,0-11.073,2.564-14.652,7.035
		l-26.259,32.803c-4.231,5.285-10.952,14.055-14.981,19.548l-17.671,24.095c-2.271-0.572-4.614-0.879-6.998-0.879
		c-6.201,0-11.989,2.02-16.735,5.842c-0.543,0.436-1.059,0.897-1.561,1.37l-9.686-12.036c-2.155-2.68-5.375-4.216-8.834-4.216
		c-2.571,0-5.088,0.885-7.085,2.492L4.217,273.127c-2.35,1.891-3.823,4.591-4.149,7.603c-0.326,3.014,0.535,5.967,2.426,8.315
		L58.1,358.151c2.155,2.68,5.375,4.216,8.834,4.216c2.571,0,5.088-0.885,7.085-2.492l41.157-33.115
		c2.35-1.891,3.823-4.591,4.149-7.604c0.326-3.014-0.535-5.967-2.426-8.315l-9.686-12.036c0.568-0.389,1.129-0.795,1.671-1.231
		c6.694-5.389,10.065-13.457,9.912-21.704c2.99-1.311,5.633-3.391,7.604-6.078l13.132-17.907l-18.157,96.585
		c-0.712,3.788,0.15,7.387,2.428,10.132c2.276,2.745,5.653,4.257,9.507,4.257h9.539l-15.998,75.975
		c-2.358,11.199,4.836,22.229,16.033,24.587c1.411,0.298,2.856,0.449,4.297,0.449c9.747,0,18.282-6.933,20.293-16.483l17.798-84.528
		h19.639c0.239,5.232,0.322,11.353,0.172,15.35l-2.424,64.117c-0.21,5.54,1.75,10.831,5.52,14.896
		c3.77,4.066,8.896,6.421,14.43,6.629c0.27,0.011,0.538,0.016,0.805,0.016c11.2,0,20.306-8.773,20.729-19.973l2.424-64.114
		c0.178-4.679,0.125-11.02-0.104-16.921h14.482c3.829,0,7.26-1.506,9.658-4.24c2.398-2.734,3.445-6.331,2.946-10.129l-12.25-93.27
		c3.66,4.718,7.775,9.628,11.018,13.074l9.786,10.396c-0.065,5.918,2.221,11.846,6.86,16.214c4.085,3.843,9.42,5.959,15.023,5.959
		c6.022,0,11.842-2.514,15.968-6.896l18.854-20.031c5.245-5.569,12.729-14.9,17.04-21.243l10.298-15.152l4.224,47.189l-6.099,68.432
		c-0.664,7.478-0.971,19.194-0.697,26.675l2.439,66.809c0.455,12.49,10.596,22.274,23.086,22.274c0.285,0,0.573-0.007,0.857-0.018
		c6.171-0.225,11.884-2.839,16.088-7.361c4.204-4.523,6.395-10.411,6.169-16.581l-2.439-66.809
		c-0.203-5.564,0.053-15.325,0.548-20.89l4.081-45.801h7.41l10.884,51.683c1.393,6.616,3.815,17.344,5.402,23.914l14.842,61.478
		c2.516,10.42,11.749,17.696,22.453,17.696c1.819,0,3.65-0.219,5.441-0.651c12.39-2.99,20.036-15.504,17.045-27.895l-14.841-61.477
		c-1.497-6.201-3.787-16.336-5.105-22.592l-12.994-61.703l-3.909-43.682c0.723,0.968,1.401,1.882,2.002,2.701l17.794,24.262
		c4.114,5.609,10.729,8.959,17.694,8.959c4.685,0,9.162-1.468,12.949-4.245c4.723-3.463,7.815-8.558,8.704-14.346
		C521.065,259.774,519.648,253.985,516.185,249.262z M79.471,264.327c0.462-0.516,0.954-1.006,1.501-1.446
		c2.332-1.878,5.203-2.87,8.302-2.87c1.124,0,2.245,0.141,3.344,0.397c0.035,0.381,0.061,0.762,0.119,1.142
		c0.762,4.951,3.406,9.311,7.446,12.273c1.596,1.17,3.336,2.065,5.169,2.676c-0.021,4.087-1.664,7.99-4.899,10.594
		c-0.546,0.44-1.123,0.824-1.725,1.166L79.471,264.327z"/>
	<path d="M206.565,155.135c28.56,0,51.794-23.242,51.794-51.811c0-28.567-23.234-51.809-51.794-51.809
		c-28.567,0-51.808,23.241-51.808,51.809C154.757,131.893,177.997,155.135,206.565,155.135z"/>
</g>
</svg>